<svg width="12" height="12" viewBox="0 0 12 12" fill="none" xmlns="http://www.w3.org/2000/svg">
<g clip-path="url(#clip0_439_3409)">
<path d="M6 0.75C4.61281 0.766736 3.28716 1.32523 2.30619 2.30619C1.32523 3.28716 0.766736 4.61281 0.75 6C0.766736 7.38719 1.32523 8.71284 2.30619 9.69381C3.28716 10.6748 4.61281 11.2333 6 11.25C7.38719 11.2333 8.71284 10.6748 9.69381 9.69381C10.6748 8.71284 11.2333 7.38719 11.25 6C11.2333 4.61281 10.6748 3.28716 9.69381 2.30619C8.71284 1.32523 7.38719 0.766736 6 0.75ZM9 6.375H6.375V9H5.625V6.375H3V5.625H5.625V3H6.375V5.625H9V6.375Z" fill="black"/>
</g>
<defs>
<clipPath id="clip0_439_3409">
<rect width="12" height="12" fill="white"/>
</clipPath>
</defs>
</svg>
